<svg xmlns="http://www.w3.org/2000/svg" xmlns:xlink="http://www.w3.org/1999/xlink" contentStyleType="text/css" data-diagram-type="SEQUENCE" height="559px" preserveAspectRatio="none" style="width:929px;height:559px;background:#F9F9F9;" version="1.1" viewBox="0 0 929 559" width="929px" zoomAndPan="magnify"><defs/><g><rect fill="#F9F9F9" height="559" style="stroke:none;stroke-width:1;" width="929" x="0" y="0"/><rect fill="#DDDDDD" height="540.7813" rx="3.5" ry="3.5" style="stroke:#181818;stroke-width:0.5;" width="646.8198" x="179.0879" y="6"/><text fill="#000000" font-family="sans-serif" font-size="13" font-weight="bold" lengthAdjust="spacing" textLength="132.4058" x="436.2949" y="18.0669">paramws package</text><g><title>External user module</title><rect fill="#000000" fill-opacity="0.00000" height="381.5938" width="8" x="83.1167" y="83.5938"/><line style="stroke:#393939;stroke-width:0.5;stroke-dasharray:5,5;" x1="87" x2="87" y1="83.5938" y2="465.1875"/></g><g><title>WebServiceClient</title><rect fill="#000000" fill-opacity="0.00000" height="381.5938" width="8" x="247.895" y="83.5938"/><line style="stroke:#393939;stroke-width:0.5;stroke-dasharray:5,5;" x1="251.0879" x2="251.0879" y1="83.5938" y2="465.1875"/></g><g><title>WebServiceConnector</title><rect fill="#000000" fill-opacity="0.00000" height="381.5938" width="8" x="412.6733" y="83.5938"/><line style="stroke:#393939;stroke-width:0.5;stroke-dasharray:5,5;" x1="416.0273" x2="416.0273" y1="83.5938" y2="465.1875"/></g><g><title>Parser</title><rect fill="#000000" fill-opacity="0.00000" height="180.7969" width="8" x="590.2441" y="284.3906"/><line style="stroke:#393939;stroke-width:0.5;stroke-dasharray:5,5;" x1="594.0239" x2="594.0239" y1="284.3906" y2="465.1875"/></g><g><title>DataStructure</title><rect fill="#000000" fill-opacity="0.00000" height="381.5938" width="8" x="765.4771" y="83.5938"/><line style="stroke:#393939;stroke-width:0.5;stroke-dasharray:5,5;" x1="769.0464" x2="769.0464" y1="83.5938" y2="465.1875"/></g><g><title>Remote data</title><rect fill="#000000" fill-opacity="0.00000" height="381.5938" width="8" x="876.2231" y="83.5938"/><line style="stroke:#393939;stroke-width:0.5;stroke-dasharray:5,5;" x1="879.9077" x2="879.9077" y1="83.5938" y2="465.1875"/></g><g class="participant participant-head" data-participant="user"><rect fill="#006400" height="30.2969" rx="3.5" ry="3.5" style="stroke:#191919;stroke-width:1.5;" width="164.2334" x="5" y="52.2969"/><text fill="#F9F9F9" font-family="sans-serif" font-size="14" lengthAdjust="spacing" textLength="150.2334" x="12" y="72.292">External user module</text></g><g class="participant participant-tail" data-participant="user"><rect fill="#006400" height="30.2969" rx="3.5" ry="3.5" style="stroke:#191919;stroke-width:1.5;" width="164.2334" x="5" y="464.1875"/><text fill="#F9F9F9" font-family="sans-serif" font-size="14" lengthAdjust="spacing" textLength="150.2334" x="12" y="484.1826">External user module</text></g><g class="participant participant-head" data-participant="wsc"><rect fill="#E55756" height="30.2969" rx="3.5" ry="3.5" style="stroke:#191919;stroke-width:1.5;" width="137.6143" x="183.0879" y="52.2969"/><text fill="#F9F9F9" font-family="sans-serif" font-size="14" lengthAdjust="spacing" textLength="123.6143" x="190.0879" y="72.292">WebServiceClient</text></g><g class="participant participant-tail" data-participant="wsc"><rect fill="#E55756" height="30.2969" rx="3.5" ry="3.5" style="stroke:#191919;stroke-width:1.5;" width="137.6143" x="183.0879" y="464.1875"/><text fill="#F9F9F9" font-family="sans-serif" font-size="14" lengthAdjust="spacing" textLength="123.6143" x="190.0879" y="484.1826">WebServiceClient</text></g><g class="participant participant-head" data-participant="ws"><rect fill="#E55756" height="30.2969" rx="3.5" ry="3.5" style="stroke:#191919;stroke-width:1.5;" width="169.292" x="332.0273" y="52.2969"/><text fill="#F9F9F9" font-family="sans-serif" font-size="14" lengthAdjust="spacing" textLength="155.292" x="339.0273" y="72.292">WebServiceConnector</text></g><g class="participant participant-tail" data-participant="ws"><rect fill="#E55756" height="30.2969" rx="3.5" ry="3.5" style="stroke:#191919;stroke-width:1.5;" width="169.292" x="332.0273" y="464.1875"/><text fill="#F9F9F9" font-family="sans-serif" font-size="14" lengthAdjust="spacing" textLength="155.292" x="339.0273" y="484.1826">WebServiceConnector</text></g><g class="participant participant-tail" data-participant="p"><rect fill="#E55756" height="30.2969" rx="3.5" ry="3.5" style="stroke:#191919;stroke-width:1.5;" width="58.4404" x="565.0239" y="464.1875"/><text fill="#F9F9F9" font-family="sans-serif" font-size="14" lengthAdjust="spacing" textLength="44.4404" x="572.0239" y="484.1826">Parser</text></g><g class="participant participant-head" data-participant="DStr"><text fill="#191919" font-family="sans-serif" font-size="14" lengthAdjust="spacing" textLength="98.8613" x="717.0464" y="80.292">DataStructure</text><ellipse cx="769.4771" cy="51.2969" fill="#EFBABC" rx="12" ry="12" style="stroke:#191919;stroke-width:0.5;"/><polygon fill="#191919" points="765.4771,39.2969,771.4771,34.2969,769.4771,39.2969,771.4771,44.2969,765.4771,39.2969" style="stroke:#191919;stroke-width:1;"/></g><g class="participant participant-tail" data-participant="DStr"><text fill="#191919" font-family="sans-serif" font-size="14" lengthAdjust="spacing" textLength="98.8613" x="717.0464" y="477.1826">DataStructure</text><ellipse cx="769.4771" cy="496.4844" fill="#EFBABC" rx="12" ry="12" style="stroke:#191919;stroke-width:0.5;"/><polygon fill="#191919" points="765.4771,484.4844,771.4771,479.4844,769.4771,484.4844,771.4771,489.4844,765.4771,484.4844" style="stroke:#191919;stroke-width:1;"/></g><g class="participant participant-head" data-participant="ds"><text fill="#191919" font-family="sans-serif" font-size="14" lengthAdjust="spacing" textLength="90.6309" x="831.9077" y="63.9951">Remote data</text><text fill="#191919" font-family="sans-serif" font-size="14" lengthAdjust="spacing" textLength="50.1484" x="852.1489" y="80.292">service</text><path d="M862.2231,15 C862.2231,5 880.2231,5 880.2231,5 C880.2231,5 898.2231,5 898.2231,15 L898.2231,41 C898.2231,51 880.2231,51 880.2231,51 C880.2231,51 862.2231,51 862.2231,41 L862.2231,15" fill="#A4DBD8" style="stroke:#191919;stroke-width:0.5;"/><path d="M862.2231,15 C862.2231,25 880.2231,25 880.2231,25 C880.2231,25 898.2231,25 898.2231,15" fill="none" style="stroke:#191919;stroke-width:0.5;"/></g><g class="participant participant-tail" data-participant="ds"><text fill="#191919" font-family="sans-serif" font-size="14" lengthAdjust="spacing" textLength="90.6309" x="831.9077" y="477.1826">Remote data</text><text fill="#191919" font-family="sans-serif" font-size="14" lengthAdjust="spacing" textLength="50.1484" x="852.1489" y="493.4795">service</text><path d="M862.2231,506.7813 C862.2231,496.7813 880.2231,496.7813 880.2231,496.7813 C880.2231,496.7813 898.2231,496.7813 898.2231,506.7813 L898.2231,532.7813 C898.2231,542.7813 880.2231,542.7813 880.2231,542.7813 C880.2231,542.7813 862.2231,542.7813 862.2231,532.7813 L862.2231,506.7813" fill="#A4DBD8" style="stroke:#191919;stroke-width:0.5;"/><path d="M862.2231,506.7813 C862.2231,516.7813 880.2231,516.7813 880.2231,516.7813 C880.2231,516.7813 898.2231,516.7813 898.2231,506.7813" fill="none" style="stroke:#191919;stroke-width:0.5;"/></g><g class="message" data-participant-1="user" data-participant-2="wsc"><polygon fill="#191919" points="239.895,110.7266,249.895,114.7266,239.895,118.7266,243.895,114.7266" style="stroke:#191919;stroke-width:1;"/><line style="stroke:#191919;stroke-width:1;" x1="87.1167" x2="245.895" y1="114.7266" y2="114.7266"/><text fill="#000000" font-family="sans-serif" font-size="13" lengthAdjust="spacing" textLength="127.9624" x="94.1167" y="109.6606">Request event data</text></g><g class="message" data-participant-1="wsc" data-participant-2="ws"><polygon fill="#191919" points="404.6733,139.8594,414.6733,143.8594,404.6733,147.8594,408.6733,143.8594" style="stroke:#191919;stroke-width:1;"/><line style="stroke:#191919;stroke-width:1;" x1="251.895" x2="410.6733" y1="143.8594" y2="143.8594"/><text fill="#000000" font-family="sans-serif" font-size="13" lengthAdjust="spacing" textLength="69.4307" x="258.895" y="138.7935">Query URL</text></g><g class="message" data-participant-1="ws" data-participant-2="ws"><line style="stroke:#191919;stroke-width:1;" x1="416.6733" x2="458.6733" y1="172.9922" y2="172.9922"/><line style="stroke:#191919;stroke-width:1;" x1="458.6733" x2="458.6733" y1="172.9922" y2="185.9922"/><line style="stroke:#191919;stroke-width:1;" x1="417.6733" x2="458.6733" y1="185.9922" y2="185.9922"/><polygon fill="#191919" points="427.6733,181.9922,417.6733,185.9922,427.6733,189.9922,423.6733,185.9922" style="stroke:#191919;stroke-width:1;"/><text fill="#000000" font-family="sans-serif" font-size="13" lengthAdjust="spacing" textLength="107.231" x="423.6733" y="167.9263">Validate request</text></g><g class="message" data-participant-1="ws" data-participant-2="ds"><polygon fill="#191919" points="868.2231,211.125,878.2231,215.125,868.2231,219.125,872.2231,215.125" style="stroke:#191919;stroke-width:1;"/><line style="stroke:#191919;stroke-width:1;" x1="416.6733" x2="874.2231" y1="215.125" y2="215.125"/><text fill="#000000" font-family="sans-serif" font-size="13" lengthAdjust="spacing" textLength="86.5757" x="423.6733" y="210.0591">Send request</text></g><g class="message" data-participant-1="ds" data-participant-2="ws"><polygon fill="#191919" points="427.6733,240.2578,417.6733,244.2578,427.6733,248.2578,423.6733,244.2578" style="stroke:#191919;stroke-width:1;"/><line style="stroke:#191919;stroke-width:1;stroke-dasharray:2,2;" x1="421.6733" x2="879.2231" y1="244.2578" y2="244.2578"/><text fill="#000000" font-family="sans-serif" font-size="13" lengthAdjust="spacing" textLength="114.9434" x="433.6733" y="239.1919">Receive response</text></g><g class="message" data-participant-1="ws" data-participant-2="p"><polygon fill="#191919" points="553.0239,284.5234,563.0239,288.5234,553.0239,292.5234,557.0239,288.5234" style="stroke:#191919;stroke-width:1;"/><line style="stroke:#191919;stroke-width:1;" x1="416.6733" x2="559.0239" y1="288.5234" y2="288.5234"/><text fill="#000000" font-family="sans-serif" font-size="13" lengthAdjust="spacing" textLength="96.2051" x="423.6733" y="268.3247">Send response</text><text fill="#000000" font-family="sans-serif" font-size="13" lengthAdjust="spacing" textLength="124.3506" x="423.6733" y="283.4575">content for parsing</text></g><rect fill="#E55756" height="30.2969" rx="3.5" ry="3.5" style="stroke:#191919;stroke-width:1.5;" width="58.4404" x="565.0239" y="255.2266"/><text fill="#F9F9F9" font-family="sans-serif" font-size="14" lengthAdjust="spacing" textLength="44.4404" x="572.0239" y="275.2217">Parser</text><g class="message" data-participant-1="p" data-participant-2="DStr"><polygon fill="#191919" points="757.4771,313.6563,767.4771,317.6563,757.4771,321.6563,761.4771,317.6563" style="stroke:#191919;stroke-width:1;"/><line style="stroke:#191919;stroke-width:1;" x1="594.2441" x2="763.4771" y1="317.6563" y2="317.6563"/><text fill="#000000" font-family="sans-serif" font-size="13" lengthAdjust="spacing" textLength="151.2329" x="601.2441" y="312.5903">Initialize data structure</text></g><g class="message" data-participant-1="p" data-participant-2="p"><line style="stroke:#191919;stroke-width:1;" x1="594.2441" x2="636.2441" y1="346.7891" y2="346.7891"/><line style="stroke:#191919;stroke-width:1;" x1="636.2441" x2="636.2441" y1="346.7891" y2="359.7891"/><line style="stroke:#191919;stroke-width:1;" x1="595.2441" x2="636.2441" y1="359.7891" y2="359.7891"/><polygon fill="#191919" points="605.2441,355.7891,595.2441,359.7891,605.2441,363.7891,601.2441,359.7891" style="stroke:#191919;stroke-width:1;"/><text fill="#000000" font-family="sans-serif" font-size="13" lengthAdjust="spacing" textLength="99.3853" x="601.2441" y="341.7231">Parse response</text></g><g class="message" data-participant-1="p" data-participant-2="ws"><polygon fill="#191919" points="427.6733,384.9219,417.6733,388.9219,427.6733,392.9219,423.6733,388.9219" style="stroke:#191919;stroke-width:1;"/><line style="stroke:#191919;stroke-width:1;stroke-dasharray:2,2;" x1="421.6733" x2="593.2441" y1="388.9219" y2="388.9219"/><text fill="#000000" font-family="sans-serif" font-size="13" lengthAdjust="spacing" textLength="140.7783" x="433.6733" y="383.856">Return data structure</text></g><line style="stroke:#393939;stroke-width:2;" x1="585.2441" x2="603.2441" y1="379.9219" y2="397.9219"/><line style="stroke:#393939;stroke-width:2;" x1="585.2441" x2="603.2441" y1="397.9219" y2="379.9219"/><g class="message" data-participant-1="ws" data-participant-2="wsc"><polygon fill="#191919" points="262.895,414.0547,252.895,418.0547,262.895,422.0547,258.895,418.0547" style="stroke:#191919;stroke-width:1;"/><line style="stroke:#191919;stroke-width:1;stroke-dasharray:2,2;" x1="256.895" x2="415.6733" y1="418.0547" y2="418.0547"/><text fill="#000000" font-family="sans-serif" font-size="13" lengthAdjust="spacing" textLength="140.7783" x="268.895" y="412.9888">Return data structure</text></g><g class="message" data-participant-1="wsc" data-participant-2="user"><polygon fill="#191919" points="98.1167,443.1875,88.1167,447.1875,98.1167,451.1875,94.1167,447.1875" style="stroke:#191919;stroke-width:1;"/><line style="stroke:#191919;stroke-width:1;stroke-dasharray:2,2;" x1="92.1167" x2="250.895" y1="447.1875" y2="447.1875"/><text fill="#000000" font-family="sans-serif" font-size="13" lengthAdjust="spacing" textLength="140.7783" x="104.1167" y="442.1216">Return data structure</text></g><!--SRC=[VL6nJiCm4Dtz5KVOAY4nC6LWeGn8390AMBguzb6i9hOvNzAMh-SSfnGgOBnxx_dUUpxZD-mGEar9gQY9dN5HUuRgTiT8NhVG9oJeWkrRh42dCfzRJPir8NfbDUkLJWXLWrrWXBnOUc4DpXI9JH38YkpgKgbLs44bftItJH2rsUYri1J0Z_Clk5gK5svQXvx7TxR9_CCBtgFXG1FrbFaW6R60KJ0JF5DeePgBtGLJRxYdOdSkeq9lGQmgDUQzkCx7QsZmlSV4W8Du6fCgsHUuXiSUQGzFpRqi3xjdtJhX8L2HJf0LQ95l7DRIqSKaQT2W6x8YnI15Jf88izcNg21BdsDaAw-1Sjpa_5h5pCuXQhZpZfqu-2ZV0kaGj91Y3MCjnrFncmlX-LEP5QyKzbAXHMtO3JbQ71qUE_fDEDOab5pd7vnF]--></g></svg>